<?xml version="1.0" standalone="no"?>
<!DOCTYPE svg PUBLIC "-//W3C//DTD SVG 20010904//EN"
 "http://www.w3.org/TR/2001/REC-SVG-20010904/DTD/svg10.dtd">
<svg version="1.0" xmlns="http://www.w3.org/2000/svg"
 width="96.000000pt" height="96.000000pt" viewBox="0 0 96.000000 96.000000"
 preserveAspectRatio="xMidYMid meet">

<g transform="translate(0.000000,96.000000) scale(0.100000,-0.100000)"
fill="#000000" stroke="none">
<path d="M355 906 c-158 -39 -259 -156 -272 -315 -7 -85 11 -149 66 -230 58
-85 82 -137 88 -194 10 -92 0 -87 202 -87 190 0 196 1 203 50 3 22 9 26 58 30
104 10 140 53 140 165 0 54 5 76 20 95 26 33 25 50 -6 96 -39 57 -54 98 -54
146 0 55 -38 136 -80 171 -91 77 -233 106 -365 73z m151 -200 c8 -21 -36 -358
-48 -373 -14 -17 -37 -16 -44 1 -8 21 36 358 48 374 14 16 37 15 44 -2z m-156
-82 c11 -13 10 -23 -8 -60 l-22 -44 22 -44 c18 -37 19 -47 8 -60 -22 -28 -39
-17 -70 44 l-30 60 30 60 c31 61 48 72 70 44z m290 -44 l30 -59 -25 -56 c-25
-57 -48 -76 -67 -57 -8 8 -7 26 7 65 17 52 17 53 -4 96 -17 33 -20 46 -10 57
21 26 38 15 69 -46z"/>
</g>
</svg>
